<svg width="144" height="112" viewBox="0 0 144.457 111.211" fill="none" xmlns="http://www.w3.org/2000/svg">
  <path d="M144.457 97.3074V69.5088L120.386 55.6055L96.3074 69.5088V97.3074L120.386 111.211L144.457 97.3074Z" fill="#02BAFF"/>
  <path d="M144.457 41.71V13.9033L120.386 0L96.3074 13.9033V41.71L120.386 55.6053L144.457 41.71Z" fill="#017FF8"/>
  <path d="M96.3074 69.5086L120.386 55.6053L96.3074 41.71L72.2285 27.8066L48.1497 41.71L24.0789 55.6053L48.1497 69.5086L72.2285 83.4119L96.3074 69.5086Z" fill="#1C21BD"/>
  <path d="M48.1497 97.3074V69.5088L24.0788 55.6055L0 69.5088V97.3074L24.0788 111.211L48.1497 97.3074Z" fill="#017FF8"/>
  <path d="M48.1497 41.71V13.9033L24.0788 0L0 13.9033V41.71L24.0788 55.6053L48.1497 41.71Z" fill="#02BAFF"/>
</svg>
